<?xml version="1.0" encoding="UTF-8"?>
<svg width="186px" height="41px" viewBox="0 0 186 41" version="1.1" xmlns="http://www.w3.org/2000/svg" xmlns:xlink="http://www.w3.org/1999/xlink">
    <!-- Generator: Sketch 48.2 (47327) - http://www.bohemiancoding.com/sketch -->
    <title>complete logo</title>
    <desc>Created with Sketch.</desc>
    <defs></defs>
    <g id="Page-2" stroke="none" stroke-width="1" fill="none" fill-rule="evenodd">
        <g id="complete-logo">
            <path d="M55.2337,4.6806 L62.8377,3.4556 L62.8377,12.5166 L71.9707,12.5166 L71.9707,18.8436 L62.8377,18.8436 L62.8377,28.2836 C62.8377,29.8826 63.1167,31.1586 63.6787,32.1106 C64.2407,33.0636 65.3707,33.5386 67.0717,33.5386 C67.8887,33.5386 68.7297,33.4626 69.5987,33.3096 C70.4657,33.1566 71.2567,32.9446 71.9707,32.6716 L73.0417,38.5906 C72.1237,38.9656 71.1027,39.2886 69.9807,39.5606 C68.8577,39.8326 67.4807,39.9686 65.8467,39.9686 C63.7717,39.9686 62.0547,39.6876 60.6937,39.1266 C59.3337,38.5656 58.2447,37.7836 57.4277,36.7786 C56.6117,35.7766 56.0417,34.5596 55.7187,33.1306 C55.3957,31.7016 55.2337,30.1206 55.2337,28.3856 L55.2337,4.6806 Z" id="Fill-85" fill="#1F3D49"></path>
            <path d="M93.1977,25.8847 C93.1977,23.5377 92.7297,21.6927 91.7947,20.3497 C90.8587,19.0057 89.5237,18.3327 87.7887,18.3327 C86.0537,18.3327 84.7097,19.0057 83.7577,20.3497 C82.8047,21.6927 82.3277,23.5377 82.3277,25.8847 C82.3277,28.2327 82.8047,30.0947 83.7577,31.4727 C84.7097,32.8497 86.0537,33.5387 87.7887,33.5387 C89.5237,33.5387 90.8587,32.8497 91.7947,31.4727 C92.7297,30.0947 93.1977,28.2327 93.1977,25.8847 M100.9527,25.8847 C100.9527,27.9947 100.6477,29.9247 100.0347,31.6757 C99.4227,33.4287 98.5377,34.9257 97.3817,36.1667 C96.2247,37.4087 94.8377,38.3697 93.2227,39.0497 C91.6067,39.7307 89.7957,40.0707 87.7887,40.0707 C85.8157,40.0707 84.0197,39.7307 82.4057,39.0497 C80.7887,38.3697 79.4027,37.4087 78.2467,36.1667 C77.0897,34.9257 76.1887,33.4287 75.5427,31.6757 C74.8957,29.9247 74.5727,27.9947 74.5727,25.8847 C74.5727,23.7757 74.9047,21.8537 75.5687,20.1187 C76.2307,18.3847 77.1487,16.9047 78.3227,15.6807 C79.4967,14.4557 80.8917,13.5027 82.5067,12.8217 C84.1227,12.1427 85.8827,11.8017 87.7887,11.8017 C89.7277,11.8017 91.5047,12.1427 93.1217,12.8217 C94.7357,13.5027 96.1217,14.4557 97.2797,15.6807 C98.4357,16.9047 99.3377,18.3847 99.9837,20.1187 C100.6297,21.8537 100.9527,23.7757 100.9527,25.8847" id="Fill-86" fill="#1F3D49"></path>
            <path d="M112.0247,25.7319 C112.0247,28.0789 112.5527,29.9669 113.6067,31.3959 C114.6617,32.8239 116.2267,33.5389 118.3017,33.5389 C118.9807,33.5389 119.6107,33.5139 120.1897,33.4629 C120.7677,33.4119 121.2437,33.3519 121.6177,33.2839 L121.6177,19.4559 C121.1417,19.1499 120.5217,18.8949 119.7557,18.6899 C118.9897,18.4869 118.2157,18.3849 117.4337,18.3849 C113.8277,18.3849 112.0247,20.8339 112.0247,25.7319 Z M129.2217,38.4889 C128.5407,38.6929 127.7577,38.8889 126.8737,39.0749 C125.9897,39.2629 125.0627,39.4239 124.0927,39.5609 C123.1237,39.6959 122.1367,39.8069 121.1337,39.8919 C120.1297,39.9759 119.1687,40.0189 118.2507,40.0189 C116.0387,40.0189 114.0657,39.6959 112.3317,39.0499 C110.5967,38.4049 109.1337,37.4769 107.9427,36.2689 C106.7527,35.0619 105.8427,33.5979 105.2127,31.8809 C104.5827,30.1639 104.2697,28.2329 104.2697,26.0889 C104.2697,23.9129 104.5417,21.9479 105.0857,20.1959 C105.6297,18.4439 106.4117,16.9559 107.4327,15.7309 C108.4537,14.5059 109.7037,13.5719 111.1837,12.9249 C112.6627,12.2789 114.3547,11.9549 116.2597,11.9549 C117.3137,11.9549 118.2587,12.0569 119.0927,12.2619 C119.9257,12.4649 120.7677,12.7549 121.6177,13.1289 L121.6177,4.4379 L129.2217,3.2139 L129.2217,38.4889 Z" id="Fill-87" fill="#1F3D49"></path>
            <path d="M145.3444,34.0489 C146.0924,34.0489 146.8074,34.0329 147.4884,33.9979 C148.1674,33.9649 148.7124,33.9139 149.1204,33.8459 L149.1204,28.0789 C148.8144,28.0119 148.3554,27.9439 147.7434,27.8759 C147.1304,27.8069 146.5704,27.7729 146.0594,27.7729 C145.3444,27.7729 144.6724,27.8159 144.0434,27.8999 C143.4144,27.9859 142.8614,28.1469 142.3854,28.3859 C141.9084,28.6239 141.5344,28.9469 141.2624,29.3549 C140.9894,29.7629 140.8554,30.2729 140.8554,30.8849 C140.8554,32.0769 141.2534,32.9019 142.0534,33.3599 C142.8524,33.8199 143.9504,34.0489 145.3444,34.0489 M144.7324,11.8019 C146.9784,11.8019 148.8484,12.0569 150.3464,12.5669 C151.8424,13.0769 153.0414,13.8099 153.9434,14.7609 C154.8434,15.7139 155.4814,16.8709 155.8564,18.2319 C156.2304,19.5919 156.4174,21.1069 156.4174,22.7729 L156.4174,38.5909 C155.3284,38.8289 153.8154,39.1099 151.8764,39.4329 C149.9374,39.7559 147.5904,39.9179 144.8344,39.9179 C143.0994,39.9179 141.5254,39.7639 140.1144,39.4579 C138.7024,39.1519 137.4874,38.6509 136.4664,37.9529 C135.4454,37.2569 134.6624,36.3449 134.1184,35.2229 C133.5754,34.1009 133.3034,32.7229 133.3034,31.0899 C133.3034,29.5259 133.6164,28.1989 134.2464,27.1089 C134.8764,26.0219 135.7174,25.1549 136.7724,24.5069 C137.8264,23.8609 139.0344,23.3939 140.3954,23.1039 C141.7564,22.8159 143.1674,22.6709 144.6314,22.6709 C145.6164,22.6709 146.4924,22.7129 147.2584,22.7989 C148.0234,22.8839 148.6444,22.9939 149.1204,23.1299 L149.1204,22.4159 C149.1204,21.1239 148.7294,20.0849 147.9474,19.3019 C147.1644,18.5199 145.8044,18.1299 143.8644,18.1299 C142.5714,18.1299 141.2964,18.2239 140.0384,18.4099 C138.7784,18.5969 137.6914,18.8609 136.7724,19.2009 L135.8024,13.0769 C136.2444,12.9429 136.7984,12.7979 137.4614,12.6439 C138.1254,12.4909 138.8474,12.3549 139.6304,12.2359 C140.4124,12.1169 141.2374,12.0149 142.1044,11.9289 C142.9724,11.8449 143.8484,11.8019 144.7324,11.8019" id="Fill-88" fill="#1F3D49"></path>
            <path d="M162.0301,40.1439 L162.0301,4.4649 L169.6341,3.2139 L169.6341,12.8239 C170.1441,12.6489 170.7991,12.4839 171.5971,12.3279 C172.3961,12.1719 173.1711,12.0939 173.9201,12.0939 C176.0961,12.0939 177.9081,12.3979 179.3541,13.0059 C180.8001,13.6149 181.9561,14.4749 182.8231,15.5869 C183.6911,16.6989 184.3041,18.0209 184.6611,19.5499 C185.0171,21.0789 185.1961,22.7819 185.1961,24.6589 L185.1961,40.1439 L177.5931,40.1439 L177.5931,25.5969 C177.5931,23.0949 177.2791,21.3219 176.6501,20.2789 C176.0191,19.2359 174.8541,18.7149 173.1551,18.7149 C172.4741,18.7149 171.8361,18.7759 171.2401,18.8979 C170.6451,19.0189 170.1091,19.1499 169.6341,19.2879 L169.6341,40.1439 L162.0301,40.1439 Z" id="Fill-89" fill="#1F3D49"></path>
            <polygon id="Fill-90" fill="#257692" points="38.0727 12.9552 19.0367 26.0432 38.0727 39.1302"></polygon>
            <polygon id="Fill-91" fill="#5B9BAA" points="0 39.1301 19.036 26.0431 0 12.9551"></polygon>
            <polygon id="Fill-92" fill="#16A7E0" points="19.0363 0 0.0003 12.955 19.0363 26.043 38.0723 12.955"></polygon>
            <polygon id="Fill-93" fill="#63BAD3" points="19.0363 0 0.0003 12.955 19.0363 26.043 38.0723 12.955"></polygon>
        </g>
    </g>
</svg>