<?xml version="1.0" encoding="UTF-8"?>
<svg width="1281px" height="855px" viewBox="0 0 1281 855" version="1.1" xmlns="http://www.w3.org/2000/svg" xmlns:xlink="http://www.w3.org/1999/xlink">
    <!-- Generator: Sketch 48.2 (47327) - http://www.bohemiancoding.com/sketch -->
    <title>Blog Main Page Copy 6</title>
    <desc>Created with Sketch.</desc>
    <defs></defs>
    <g id="v.03-Blog-Color-wireframes" stroke="none" stroke-width="1" fill="none" fill-rule="evenodd">
        <g id="Blog-Main-Page-Copy-6">
            <g id="Group" transform="translate(-320.000000, -399.000000)">
                <polygon id="Triangle-Copy" fill="#FFFFFF" transform="translate(497.905744, 681.885758) rotate(-45.000000) translate(-497.905744, -681.885758) " points="572.137824 356.056962 875.486633 659.405771 826.284019 1007.71455 120.324855 809.230558"></polygon>
                <path d="M314,990 L875,562 L1445.5,1256 L322,1263 C318,1198.12847 316,1150.96181 316,1121.5 C316,1092.03819 315.333333,1048.20486 314,990 Z" id="Rectangle-Copy" fill="#183E4A"></path>
                <path d="M1169.66644,408.061139 L1409.24003,258.358947 L1862.321,983.440069 C1839.09211,997.699014 1819.72835,1009.79884 1804.2297,1019.73954 C1793.2942,1026.75348 1773.7891,1038.94162 1745.71438,1056.30397 C1736.04196,1064.43291 1729.96428,1068.23066 1727.48135,1067.69723 C1707.66757,1063.44048 1350.98892,950.252192 657.445388,728.132374 L1169.66644,408.061139 Z" id="Right-corner" fill="#42BDD6" transform="translate(1259.883192, 663.052726) rotate(32.000000) translate(-1259.883192, -663.052726) "></path>
            </g>
        </g>
    </g>
</svg>